<svg width="900" height="360" viewBox="0 0 900 360" fill="none" xmlns="http://www.w3.org/2000/svg">
  <rect width="900" height="360" rx="42" fill="#FFF7ED"/>
  <path d="M270 78c0-24 20-44 44-44h168c24 0 44 20 44 44v168c0 24-20 44-44 44H314c-24 0-44-20-44-44V78Z" fill="#B83216"/>
  <path d="M314 34h168c24 0 44 20 44 44v168c0 24-20 44-44 44H314c-24 0-44-20-44-44V78c0-24 20-44 44-44Z" stroke="#D99A3B" stroke-width="10"/>
  <path d="M330 70h136c12 0 22 10 22 22v128c0 12-10 22-22 22H330V70Z" fill="#D6421E"/>
  <path d="M314 84h-26m26 32h-26m26 32h-26m26 32h-26m26 32h-26" stroke="#D99A3B" stroke-width="14" stroke-linecap="round"/>
  <path d="M370 139c0-22 18-40 40-40 12 0 23 5 30 13a42 42 0 1 1 28 74v30h-98v-30a40 40 0 0 1 0-47Z" stroke="#FFE7B0" stroke-width="12" stroke-linejoin="round"/>
  <path d="M426 221c24-21 55 12 0 42-55-30-24-63 0-42Z" fill="#FFE7B0"/>
  <text x="450" y="315" text-anchor="middle" font-family="Georgia,serif" font-size="72" font-weight="700" fill="#B83216">Caderno de Receitas</text>
</svg>
